<svg width="526" height="437" viewBox="0 0 526 437" fill="none" xmlns="http://www.w3.org/2000/svg">
<path d="M523.975 259.849C522.167 117.127 406.012 2 262.987 2C119.963 2 3.80766 117.127 2 259.849H11.7056C13.5133 122.513 125.326 11.7222 262.987 11.7222C400.648 11.7222 512.461 122.513 514.269 259.849H514.286V266.612L514.269 356.313C513.391 423.252 514.269 392.767 514.269 435H520.893C520.893 383.431 523.096 336.257 523.975 266.612H524V259.849H523.975Z" fill="url(#paint0_linear_145_79)"/>
<path d="M523.975 259.849C522.167 117.127 406.012 2 262.987 2C119.963 2 3.80766 117.127 2 259.849H11.7056C13.5133 122.513 125.326 11.7222 262.987 11.7222C400.648 11.7222 512.461 122.513 514.269 259.849H514.286V266.612L514.269 356.313C513.391 423.252 514.269 392.767 514.269 435H520.893C520.893 383.431 523.096 336.257 523.975 266.612H524V259.849H523.975Z" stroke="black" stroke-width="3" stroke-miterlimit="10"/>
<path d="M523.975 259.849C522.167 117.127 406.012 2 262.987 2C119.963 2 3.80766 117.127 2 259.849H11.7056C13.5133 122.513 125.326 11.7222 262.987 11.7222C400.648 11.7222 512.461 122.513 514.269 259.849H514.286V266.612L514.269 356.313C513.391 423.252 514.269 392.767 514.269 435H520.893C520.893 383.431 523.096 336.257 523.975 266.612H524V259.849H523.975Z" stroke="white" stroke-width="3" stroke-miterlimit="10"/>
<defs>
<linearGradient id="paint0_linear_145_79" x1="12.2092" y1="234.949" x2="455.88" y2="30.9684" gradientUnits="userSpaceOnUse">
<stop stop-color="#FF0000"/>
<stop offset="0.432292" stop-color="#D30000"/>
<stop offset="0.458333" stop-color="#9F0000"/>
<stop offset="0.505208" stop-opacity="0"/>
</linearGradient>
</defs>
</svg>
