<?xml version="1.0" standalone="no"?>
<!DOCTYPE svg PUBLIC "-//W3C//DTD SVG 20010904//EN"
 "http://www.w3.org/TR/2001/REC-SVG-20010904/DTD/svg10.dtd">
<svg version="1.0" xmlns="http://www.w3.org/2000/svg"
 width="120.000000pt" height="120.000000pt" viewBox="0 0 120.000000 120.000000"
 preserveAspectRatio="xMidYMid meet">
<metadata>
Created by potrace 1.14, written by Peter Selinger 2001-2017
</metadata>
<g transform="translate(0.000000,120.000000) scale(0.100000,-0.100000)"
fill="#000000" stroke="none">
<path d="M495 1155 c-73 -22 -115 -49 -190 -123 -31 -31 -56 -80 -33 -66 5 4
5 -4 -2 -16 -33 -62 -53 -148 -52 -221 1 -79 17 -132 68 -236 23 -46 26 -62
22 -129 -3 -68 -6 -79 -30 -99 -15 -13 -32 -25 -39 -27 -40 -13 90 -156 186
-203 56 -28 67 -30 180 -30 116 0 122 1 187 34 72 36 172 130 163 153 -3 8
-15 15 -28 15 -12 1 -23 7 -25 13 -2 5 -7 8 -12 5 -4 -2 -15 4 -25 15 -15 16
-16 25 -8 43 17 35 26 60 30 87 2 14 23 66 47 115 55 115 79 217 66 280 -1 6
-1 22 0 37 2 42 -38 126 -103 213 -69 93 -89 108 -177 136 -71 22 -160 24
-225 4z"/>
</g>
</svg>
